<svg class="svg-icon" style="width: 1em;height: 1em;vertical-align: middle;fill: white;overflow: hidden;" viewBox="0 0 1024 1024" version="1.1" xmlns="http://www.w3.org/2000/svg"><path d="M512 920.746667a270.506667 270.506667 0 0 1-270.08-270.08v-277.333334a270.08 270.08 0 1 1 540.16 0v277.333334A270.506667 270.506667 0 0 1 512 920.746667z m0-774.826667a227.413333 227.413333 0 0 0-227.413333 227.413333v277.333334a227.413333 227.413333 0 0 0 454.826666 0v-277.333334A227.413333 227.413333 0 0 0 512 145.92z"  /><path d="M512 482.56a21.333333 21.333333 0 0 1-21.333333-21.333333V343.893333a21.333333 21.333333 0 1 1 42.666666 0v117.333334a21.333333 21.333333 0 0 1-21.333333 21.333333z"  /></svg>